<svg width="75" height="33" viewBox="0 0 75 33" fill="none" xmlns="http://www.w3.org/2000/svg">
<path d="M0.784 14L4.168 1.4H9.406C11.014 1.4 12.172 1.682 12.88 2.246C13.6 2.81 13.96 3.536 13.96 4.424C13.96 5.228 13.708 5.912 13.204 6.476C12.712 7.04 12.022 7.43 11.134 7.646C12.406 8.102 13.042 8.942 13.042 10.166C13.042 11.306 12.556 12.23 11.584 12.938C10.612 13.646 9.19 14 7.318 14H0.784ZM4.942 11.192H7.588C8.188 11.192 8.662 11.072 9.01 10.832C9.358 10.58 9.532 10.256 9.532 9.86C9.532 9.2 9.016 8.87 7.984 8.87H5.572L4.942 11.192ZM6.238 6.422H8.596C9.208 6.422 9.676 6.308 10 6.08C10.336 5.852 10.504 5.54 10.504 5.144C10.504 4.52 10 4.208 8.992 4.208H6.814L6.238 6.422ZM18.9076 14.234C17.5756 14.234 16.4836 13.85 15.6316 13.082C14.7796 12.302 14.3536 11.264 14.3536 9.968C14.3536 8.336 14.9236 6.944 16.0636 5.792C17.2036 4.64 18.5836 4.064 20.2036 4.064C21.2836 4.064 22.1716 4.31 22.8676 4.802C23.5756 5.294 24.0676 5.936 24.3436 6.728L21.6616 8.114C21.3136 7.298 20.7556 6.89 19.9876 6.89C19.3516 6.89 18.7996 7.184 18.3316 7.772C17.8756 8.36 17.6476 9.032 17.6476 9.788C17.6476 10.28 17.7856 10.676 18.0616 10.976C18.3496 11.264 18.7096 11.408 19.1416 11.408C19.7656 11.408 20.3776 11.108 20.9776 10.508L23.0656 12.326C21.9736 13.598 20.5876 14.234 18.9076 14.234ZM29.1402 14.234C27.7122 14.234 26.5782 13.844 25.7382 13.064C24.9102 12.284 24.4962 11.234 24.4962 9.914C24.4962 8.39 25.0422 7.034 26.1342 5.846C27.2262 4.646 28.6302 4.046 30.3462 4.046C31.7022 4.046 32.7282 4.436 33.4242 5.216C34.1322 5.984 34.4862 6.938 34.4862 8.078C34.4862 8.726 34.3602 9.392 34.1082 10.076H27.6462C27.7302 11.144 28.3362 11.678 29.4642 11.678C30.1362 11.678 30.8262 11.42 31.5342 10.904L33.1182 12.776C32.0022 13.748 30.6762 14.234 29.1402 14.234ZM27.8802 8.33H31.3542C31.4142 8.15 31.4442 7.976 31.4442 7.808C31.4442 7.448 31.3302 7.154 31.1022 6.926C30.8742 6.686 30.5442 6.566 30.1122 6.566C29.6322 6.566 29.1882 6.722 28.7802 7.034C28.3842 7.334 28.0842 7.766 27.8802 8.33ZM27.2682 3.434L27.9702 0.86H30.9582L30.2562 3.434H27.2682ZM31.2102 3.434L31.9122 0.86H34.9002L34.1982 3.434H31.2102ZM39.4169 14L42.0269 4.262H45.3389L44.0249 9.14L48.5789 4.262H51.7289L49.1189 14H45.8069L47.1029 9.122L42.5669 14H39.4169ZM51.7239 14.126C51.0879 14.126 50.5719 14.042 50.1759 13.874L50.9859 11.336C51.2259 11.372 51.4059 11.39 51.5259 11.39C51.8379 11.39 52.0899 11.312 52.2819 11.156C52.4859 10.988 52.7499 10.508 53.0739 9.716C53.4099 8.924 53.7939 7.73 54.2259 6.134L54.7299 4.262H63.1359L60.5259 14H57.1059L58.9779 6.98H57.1779L56.8359 8.186C56.6319 8.906 56.4279 9.554 56.2239 10.13C56.0319 10.694 55.8279 11.18 55.6119 11.588C55.4079 11.996 55.2159 12.35 55.0359 12.65C54.8679 12.938 54.6639 13.178 54.4239 13.37C54.1959 13.55 53.9919 13.694 53.8119 13.802C53.6439 13.898 53.4219 13.97 53.1459 14.018C52.8819 14.066 52.6599 14.096 52.4799 14.108C52.2999 14.12 52.0479 14.126 51.7239 14.126ZM62.3564 14L64.9664 4.262H68.2784L66.9644 9.14L71.5184 4.262H74.6684L72.0584 14H68.7464L70.0424 9.122L65.5064 14H62.3564ZM0.784 32L4.168 19.4H7.678L6.4 24.116H10.846L12.106 19.4H15.616L12.232 32H8.722L10.018 27.212H5.572L4.294 32H0.784ZM14.245 32L16.855 22.262H20.167L18.853 27.14L23.407 22.262H26.557L23.947 32H20.635L21.931 27.122L17.395 32H14.245ZM31.484 32L32.312 28.868C31.604 29.156 30.764 29.3 29.792 29.3C28.964 29.3 28.31 29.072 27.83 28.616C27.362 28.148 27.128 27.536 27.128 26.78C27.128 26.492 27.176 26.156 27.272 25.772L28.226 22.262H31.664L30.926 25.016C30.842 25.352 30.8 25.592 30.8 25.736C30.8 26.252 31.046 26.51 31.538 26.51C32.15 26.51 32.654 26.384 33.05 26.132L34.094 22.262H37.514L34.904 32H31.484ZM42.2007 32.234C40.7727 32.234 39.6387 31.844 38.7987 31.064C37.9707 30.284 37.5567 29.234 37.5567 27.914C37.5567 26.39 38.1027 25.034 39.1947 23.846C40.2867 22.646 41.6907 22.046 43.4067 22.046C44.7627 22.046 45.7887 22.436 46.4847 23.216C47.1927 23.984 47.5467 24.938 47.5467 26.078C47.5467 26.726 47.4207 27.392 47.1687 28.076H40.7067C40.7907 29.144 41.3967 29.678 42.5247 29.678C43.1967 29.678 43.8867 29.42 44.5947 28.904L46.1787 30.776C45.0627 31.748 43.7367 32.234 42.2007 32.234ZM40.9407 26.33H44.4147C44.4747 26.15 44.5047 25.976 44.5047 25.808C44.5047 25.448 44.3907 25.154 44.1627 24.926C43.9347 24.686 43.6047 24.566 43.1727 24.566C42.6927 24.566 42.2487 24.722 41.8407 25.034C41.4447 25.334 41.1447 25.766 40.9407 26.33ZM47.4853 32L50.0953 22.262H57.4393L56.7013 25.016H52.7773L50.9053 32H47.4853ZM61.5405 32.234C60.0885 32.234 58.9305 31.808 58.0665 30.956C57.2025 30.104 56.7705 29.018 56.7705 27.698C56.7705 26.198 57.3225 24.884 58.4265 23.756C59.5425 22.616 60.8985 22.046 62.4945 22.046C63.9585 22.046 65.1225 22.472 65.9865 23.324C66.8505 24.176 67.2825 25.256 67.2825 26.564C67.2825 28.076 66.7245 29.402 65.6085 30.542C64.5045 31.67 63.1485 32.234 61.5405 32.234ZM61.7385 29.39C62.3865 29.39 62.9265 29.114 63.3585 28.562C63.7905 27.998 64.0065 27.374 64.0065 26.69C64.0065 26.15 63.8505 25.718 63.5385 25.394C63.2265 25.058 62.8185 24.89 62.3145 24.89C61.6665 24.89 61.1265 25.172 60.6945 25.736C60.2625 26.288 60.0465 26.9 60.0465 27.572C60.0465 28.124 60.2025 28.568 60.5145 28.904C60.8265 29.228 61.2345 29.39 61.7385 29.39Z" fill="white"/>
</svg>
